<svg width="41" height="41" viewBox="0 0 41 41" fill="none" xmlns="http://www.w3.org/2000/svg">
<mask id="mask0_468_511" style="mask-type:alpha" maskUnits="userSpaceOnUse" x="0" y="0" width="41" height="41">
<rect width="41" height="41" fill="#D9D9D9"/>
</mask>
<g mask="url(#mask0_468_511)">
<g filter="url(#filter0_d_468_511)">
<path d="M34.2843 0H6.85379C3.06855 0 0 3.04751 0 6.80681V34.0493C0 37.8086 3.06855 40.8561 6.85379 40.8561H34.2843C38.0696 40.8561 41.1381 37.8086 41.1381 34.0493V6.80681C41.1381 3.04751 38.0696 0 34.2843 0Z" fill="#56CCF2"/>
</g>
<g clip-path="url(#clip0_468_511)">
<path d="M30.8618 19H26.6918L29.9318 15.76L28.5218 14.34L23.8618 19H21.8618V17L26.5218 12.34L25.1018 10.93L21.8618 14.17V10H19.8618V14.17L16.6218 10.93L15.2018 12.34L19.8618 17V19H17.8618L13.2018 14.34L11.7918 15.76L15.0318 19H10.8618V21H15.0318L11.7918 24.24L13.2018 25.66L17.8618 21H19.8618V23L15.2018 27.66L16.6218 29.07L19.8618 25.83V30H21.8618V25.83L25.1018 29.07L26.5218 27.66L21.8618 23V21H23.8618L28.5218 25.66L29.9318 24.24L26.6918 21H30.8618V19Z" fill="white"/>
</g>
</g>
<defs>
<filter id="filter0_d_468_511" x="-10" y="-10" width="71.1381" height="70.8561" filterUnits="userSpaceOnUse" color-interpolation-filters="sRGB">
<feFlood flood-opacity="0" result="BackgroundImageFix"/>
<feColorMatrix in="SourceAlpha" type="matrix" values="0 0 0 0 0 0 0 0 0 0 0 0 0 0 0 0 0 0 127 0" result="hardAlpha"/>
<feOffset dx="5" dy="5"/>
<feGaussianBlur stdDeviation="7.5"/>
<feColorMatrix type="matrix" values="0 0 0 0 0 0 0 0 0 0 0 0 0 0 0 0 0 0 0.15 0"/>
<feBlend mode="normal" in2="BackgroundImageFix" result="effect1_dropShadow_468_511"/>
<feBlend mode="normal" in="SourceGraphic" in2="effect1_dropShadow_468_511" result="shape"/>
</filter>
<clipPath id="clip0_468_511">
<rect width="24" height="24" fill="white" transform="translate(8.86182 8)"/>
</clipPath>
</defs>
</svg>
