<svg width="41" height="41" viewBox="0 0 41 41" fill="none" xmlns="http://www.w3.org/2000/svg">
<mask id="mask0_468_508" style="mask-type:alpha" maskUnits="userSpaceOnUse" x="0" y="0" width="41" height="41">
<rect width="41" height="41" fill="#D9D9D9"/>
</mask>
<g mask="url(#mask0_468_508)">
<g filter="url(#filter0_d_468_508)">
<path d="M34.2844 0H6.85379C3.06855 0 0 3.04751 0 6.8068V34.0493C0 37.8086 3.06855 40.8561 6.85379 40.8561H34.2844C38.0696 40.8561 41.1381 37.8086 41.1381 34.0493V6.8068C41.1381 3.04751 38.0696 0 34.2844 0Z" fill="#F58A8A"/>
</g>
<g clip-path="url(#clip0_468_508)">
<path d="M27 17H26V15C26 12.24 23.76 10 21 10C18.24 10 16 12.24 16 15V17H15C13.9 17 13 17.9 13 19V29C13 30.1 13.9 31 15 31H27C28.1 31 29 30.1 29 29V19C29 17.9 28.1 17 27 17ZM21 26C19.9 26 19 25.1 19 24C19 22.9 19.9 22 21 22C22.1 22 23 22.9 23 24C23 25.1 22.1 26 21 26ZM24.1 17H17.9V15C17.9 13.29 19.29 11.9 21 11.9C22.71 11.9 24.1 13.29 24.1 15V17Z" fill="white"/>
</g>
</g>
<defs>
<filter id="filter0_d_468_508" x="-10" y="-10" width="71.1381" height="70.8561" filterUnits="userSpaceOnUse" color-interpolation-filters="sRGB">
<feFlood flood-opacity="0" result="BackgroundImageFix"/>
<feColorMatrix in="SourceAlpha" type="matrix" values="0 0 0 0 0 0 0 0 0 0 0 0 0 0 0 0 0 0 127 0" result="hardAlpha"/>
<feOffset dx="5" dy="5"/>
<feGaussianBlur stdDeviation="7.5"/>
<feColorMatrix type="matrix" values="0 0 0 0 0 0 0 0 0 0 0 0 0 0 0 0 0 0 0.15 0"/>
<feBlend mode="normal" in2="BackgroundImageFix" result="effect1_dropShadow_468_508"/>
<feBlend mode="normal" in="SourceGraphic" in2="effect1_dropShadow_468_508" result="shape"/>
</filter>
<clipPath id="clip0_468_508">
<rect width="24" height="24" fill="white" transform="translate(9 9)"/>
</clipPath>
</defs>
</svg>
