<svg width="648" height="490" fill="none" xmlns="http://www.w3.org/2000/svg"><path d="M-3.491 136.467c73.827 37.23 156.489 141.437 156.489 191.195 0 61.207-129.777 155.016-189.301 208.231l507.958 32.812c-18.089-80.979-63.761-261.005-35.967-300.989 35.967-51.742 181.519-39.122 263.129-29.657L720.902 7.742C681.149 24.36 592.177 72.105 543.59 59.485c-44.975-11.682-131.249-62.049-167.848-94.02" stroke="#fff" stroke-opacity=".2" stroke-width="15"/><path d="M186.441 79.677c20.192 105.167 75.09 297.96 133.142 227.792 72.565-87.709 129.987-201.29 184.253-126.2 43.413 60.071 107.271 178.574 133.773 230.316" stroke="#fff" stroke-opacity=".2" stroke-width="15"/></svg>