<svg width="41" height="31" fill="none" xmlns="http://www.w3.org/2000/svg"><mask id="a" style="mask-type:alpha" maskUnits="userSpaceOnUse" x="0" y="0" width="41" height="31"><path fill="#D9D9D9" d="M0 0h41v31H0z"/></mask><g mask="url(#a)"><g filter="url(#filter0_d_450_409)"><path d="M34.284 0H6.854C3.069 0 0 2.286 0 5.105V25.54c0 2.82 3.069 5.105 6.854 5.105h27.43c3.786 0 6.854-2.286 6.854-5.105V5.105C41.138 2.285 38.07 0 34.284 0z" fill="#6FCF97"/></g><path d="M26.311 11.173H9.98v7.656h16.33v-7.656zm4.402 1.523l-3.605 1.137V16.2l3.605 1.136h1.307v-4.64h-1.307z" fill="#fff"/></g><defs><filter id="filter0_d_450_409" x="-10" y="-10" width="71.138" height="60.644" filterUnits="userSpaceOnUse" color-interpolation-filters="sRGB"><feFlood flood-opacity="0" result="BackgroundImageFix"/><feColorMatrix in="SourceAlpha" values="0 0 0 0 0 0 0 0 0 0 0 0 0 0 0 0 0 0 127 0" result="hardAlpha"/><feOffset dx="5" dy="5"/><feGaussianBlur stdDeviation="7.5"/><feColorMatrix values="0 0 0 0 0 0 0 0 0 0 0 0 0 0 0 0 0 0 0.15 0"/><feBlend in2="BackgroundImageFix" result="effect1_dropShadow_450_409"/><feBlend in="SourceGraphic" in2="effect1_dropShadow_450_409" result="shape"/></filter></defs></svg>