<svg width="41" height="31" fill="none" xmlns="http://www.w3.org/2000/svg"><mask id="a" style="mask-type:alpha" maskUnits="userSpaceOnUse" x="0" y="0" width="41" height="31"><path fill="#D9D9D9" d="M0 0h41v31H0z"/></mask><g mask="url(#a)"><g filter="url(#filter0_d_450_390)"><path d="M34.284 0H6.854C3.069 0 0 2.286 0 5.105V25.54c0 2.82 3.069 5.105 6.854 5.105h27.43c3.786 0 6.854-2.286 6.854-5.105V5.105C41.138 2.285 38.07 0 34.284 0z" fill="#F58A8A"/></g><g clip-path="url(#clip0_450_390)"><path d="M27 12h-1v-1.5c0-2.07-2.24-3.75-5-3.75s-5 1.68-5 3.75V12h-1c-1.1 0-2 .676-2 1.5v7.501c0 .825.9 1.5 2 1.5h12c1.1 0 2-.675 2-1.5v-7.5c0-.825-.9-1.5-2-1.5zm-6 6.751c-1.1 0-2-.675-2-1.5s.9-1.5 2-1.5 2 .675 2 1.5-.9 1.5-2 1.5zm3.1-6.75h-6.2v-1.5c0-1.283 1.39-2.325 3.1-2.325 1.71 0 3.1 1.042 3.1 2.325V12z" fill="#fff"/></g></g><defs><clipPath id="clip0_450_390"><path fill="#fff" transform="translate(9 6)" d="M0 0h24v18.001H0z"/></clipPath><filter id="filter0_d_450_390" x="-10" y="-10" width="71.138" height="60.644" filterUnits="userSpaceOnUse" color-interpolation-filters="sRGB"><feFlood flood-opacity="0" result="BackgroundImageFix"/><feColorMatrix in="SourceAlpha" values="0 0 0 0 0 0 0 0 0 0 0 0 0 0 0 0 0 0 127 0" result="hardAlpha"/><feOffset dx="5" dy="5"/><feGaussianBlur stdDeviation="7.5"/><feColorMatrix values="0 0 0 0 0 0 0 0 0 0 0 0 0 0 0 0 0 0 0.15 0"/><feBlend in2="BackgroundImageFix" result="effect1_dropShadow_450_390"/><feBlend in="SourceGraphic" in2="effect1_dropShadow_450_390" result="shape"/></filter></defs></svg>