<svg width="41" height="31" fill="none" xmlns="http://www.w3.org/2000/svg"><mask id="a" style="mask-type:alpha" maskUnits="userSpaceOnUse" x="0" y="0" width="41" height="31"><path fill="#D9D9D9" d="M0 0h41v31H0z"/></mask><g mask="url(#a)"><g filter="url(#filter0_d_450_407)"><path d="M34.284 0H6.854C3.069 0 0 2.286 0 5.105V25.54c0 2.82 3.069 5.105 6.854 5.105h27.43c3.786 0 6.854-2.286 6.854-5.105V5.105C41.138 2.285 38.07 0 34.284 0z" fill="#56CCF2"/></g><path d="M30.862 14.25h-4.17l3.24-2.43-1.41-1.064-4.66 3.495h-2v-1.5l4.66-3.495-1.42-1.058-3.24 2.43V7.5h-2v3.128l-3.24-2.43-1.42 1.058 4.66 3.495v1.5h-2l-4.66-3.495-1.41 1.065 3.24 2.43h-4.17v1.5h4.17l-3.24 2.43 1.41 1.065 4.66-3.495h2v1.5l-4.66 3.495 1.42 1.058 3.24-2.43v3.128h2v-3.128l3.24 2.43 1.42-1.058-4.66-3.495v-1.5h2l4.66 3.495 1.41-1.065-3.24-2.43h4.17v-1.5z" fill="#fff"/></g><defs><filter id="filter0_d_450_407" x="-10" y="-10" width="71.138" height="60.644" filterUnits="userSpaceOnUse" color-interpolation-filters="sRGB"><feFlood flood-opacity="0" result="BackgroundImageFix"/><feColorMatrix in="SourceAlpha" values="0 0 0 0 0 0 0 0 0 0 0 0 0 0 0 0 0 0 127 0" result="hardAlpha"/><feOffset dx="5" dy="5"/><feGaussianBlur stdDeviation="7.5"/><feColorMatrix values="0 0 0 0 0 0 0 0 0 0 0 0 0 0 0 0 0 0 0.15 0"/><feBlend in2="BackgroundImageFix" result="effect1_dropShadow_450_407"/><feBlend in="SourceGraphic" in2="effect1_dropShadow_450_407" result="shape"/></filter></defs></svg>