<svg width="41" height="31" fill="none" xmlns="http://www.w3.org/2000/svg"><mask id="a" style="mask-type:alpha" maskUnits="userSpaceOnUse" x="0" y="0" width="41" height="31"><path fill="#D9D9D9" d="M0 0h41v31H0z"/></mask><g mask="url(#a)"><g filter="url(#filter0_d_450_411)"><path d="M34.284 0H6.854C3.069 0 0 2.286 0 5.105V25.54c0 2.82 3.069 5.105 6.854 5.105h27.43c3.786 0 6.854-2.286 6.854-5.105V5.105C41.138 2.285 38.07 0 34.284 0z" fill="#F2C94C"/></g><path d="M30 12.75C30 9 26 6 21 6s-9 3-9 6.75c0 2.326 1.6 4.426 4 5.626v1.875c0 .975.8 1.8 2 2.1v.15c0 1.275 1.3 2.25 3 2.25s3-.975 3-2.25v-.15c1.2-.3 2-1.125 2-2.1v-1.875c2.4-1.2 4-3.3 4-5.625zm-16 0c0-2.924 3.1-5.25 7-5.25s7 2.326 7 5.25c0 2.626-2.6 4.801-6 5.176v-1.875l1.7-1.275c.4-.3.4-.75 0-1.05-.4-.3-1-.3-1.4 0L21 14.7l-1.3-.975c-.4-.3-1-.3-1.4 0-.4.3-.4.75 0 1.05L20 16.05v1.875c-3.4-.375-6-2.55-6-5.175zm7 10.502c-.6 0-1-.3-1-.75h2c0 .45-.4.75-1 .75zm3-3c0 .45-.4.75-1 .75h-4c-.6 0-1-.3-1-.75v-1.126c.9.225 1.9.375 3 .375s2.1-.15 3-.375v1.125z" fill="#fff"/></g><defs><filter id="filter0_d_450_411" x="-10" y="-10" width="71.138" height="60.644" filterUnits="userSpaceOnUse" color-interpolation-filters="sRGB"><feFlood flood-opacity="0" result="BackgroundImageFix"/><feColorMatrix in="SourceAlpha" values="0 0 0 0 0 0 0 0 0 0 0 0 0 0 0 0 0 0 127 0" result="hardAlpha"/><feOffset dx="5" dy="5"/><feGaussianBlur stdDeviation="7.5"/><feColorMatrix values="0 0 0 0 0 0 0 0 0 0 0 0 0 0 0 0 0 0 0.15 0"/><feBlend in2="BackgroundImageFix" result="effect1_dropShadow_450_411"/><feBlend in="SourceGraphic" in2="effect1_dropShadow_450_411" result="shape"/></filter></defs></svg>