<svg width="375" height="289" fill="none" xmlns="http://www.w3.org/2000/svg"><path d="M117 287l-1.5-5 8-1.5c3.833 2 11.2 6.4 10 8-.4.8-11.167-.667-16.5-1.5zm-40.5-47l4.5 7.5c-.333 5.167-1.4 15.3-3 14.5-1.6-.8-6.667-13.667-9-20l7.5-2z" fill="#D06262"/><path d="M50.328 194.993c-5.33-5.535-10.172-15.968-11.927-20.493 5.128-2.481 16.523-8.148 21.083-10.978 4.56-2.829 13.209-9.248 16.963-12.104 2.19 1.974 8.563 6.844 16.534 10.53 20.471 9.665 32.163 22.147 36.204 33.324 3.233 8.941-10.011 22.177-17.534 27.722-4.36-7.408-6.983-10.404-12.15-17.46l1.756-8.196-10.324-3.067a4915.57 4915.57 0 0114.325 19.269c14.07 17.585 18.942 47.632 19.62 60.457-2.625.576-9.088 1.64-13.941 1.283-.573-6.23-8.379-20.069-15.83-32.321-1.517 1.814-3.619 3.983-4.843 4.095-6.194-1.84-8.113-9.965-8.298-13.798l4.681-3.921a867.96 867.96 0 01-1.791-2.872c-7.664-12.35-27.866-24.551-34.528-31.47z" fill="#1F3F68"/><path d="M78.347 150.239c-14.534 11.212-44.62 31.318-48.685 22.052-5.082-11.583-4.086-11.675-6.896-14.931-2.81-3.257-3.497-10.725-4.768-13.621-.639-1.455-5.787-7.822-9.903-15.659 0 0-.123-.227-.332-.641-2.922-5.702-5.23-12.119-4.85-17.962.29-8.563 6.803-14.086 6.803-14.086 3.882-4.138 7.523-4.833 8.784-4.722l.023.016c3.035 2.064 7.522 5.115 9.111 4.97C29.228 95.507 31.5 92.5 33 91c7.606.807 9.929-1.141 15.874-.33C56.205 91.67 76 102 91.5 74.5c1.54.36 5.01 1.729 7.5 1.5-8.5 25-16 32.781-23 35.231-5.372 1.881-9.605 2.405-12.948 2.371-.614 3.261-1.43 8.622-2.788 14.089 2.794 5.116 5.748 9.814 8.068 11.921 6.026 5.471 12.831 8.49 10.015 10.627z" fill="#fff"/><path d="M78.061 179.89l13.416 14.833 9.78 2.616-.583 4.572c2.245-2.884 5.123-9.81-1.329-14.439-6.45-4.628-16.877-6.983-21.284-7.582zm8.563 49.423l8.299 13.798-1.356 1.631c-1.225-2.398-4.441-4.612-7.16-6.873-2.175-1.808-2.63-4.946-2.587-6.289l2.804-2.267zm-38.557-75.285c-14.198-1.506-31.464-16.353-38.322-23.589 15.859 14.107 34.287 17.935 40.124 15.892 4.67-1.635 8.25-13.804 10.131-18.831l3.799 6.503c.671 7.303-1.535 21.531-15.732 20.025zm-5.1-28.151c-3.148.575-11.294-6.325-14.949-9.671C41.473 126.014 41.5 121 58.5 109c-.738 1.072-8 15.5-15.533 16.877z" fill="#000" fill-opacity=".2"/><path d="M63.5 111.5c-1.713-.344-3.204-.924-5-2.5l1.5-3.5c-.167-.833-.4-2.7 0-3.5.4-.8 2-1.667 2.5-2l-.5 2.5 2.5-3 4 3.5-.5 3.5-3 1.5-1.5 3.5zM100 71l-1 5c-1.6.4-5.833-.833-7.5-1.5C92 73 93.6 69 94 67c.4-2 4.167-4.167 6-5h2l-2 3.5V71z" fill="#F2994A"/><path d="M16 80.5c.8 1.6 3 5 4 6.5.667-1.333 1.6-4.3 0-5.5-1.6-1.2-3-3.167-3.5-4 .5-.333 1.8-1 3-1-.8-6 3.333-8.167 5.5-8.5l8.5-.5.5 2.5c3.167-3 8.9-9.5 6.5-11.5-3-2.5-12 4-18 4s-8.5 3-10 6 2.5 10 3.5 12z" fill="#316099"/><path d="M27.5 96c-1.6 0-6.167-3.167-9-5 1.333-.667 2-3.2 2-4 0-1 1-5 0-5.5s-4-2.5-4-3.5c0-.8 2-1 3-1-.333-1.667-.4-5.5 2-7.5s9-2.167 12-2c.167.667.8 3.5 2 9.5s-1.5 8.833-3 9.5L33 91c-1.167 1.5-3.9 5-5.5 5z" fill="#F2994A"/><path d="M123.5 280.5l-.5-6c-3.531.946-5.629 1.113-9.5 1l2 6.5 8-1.5zm-42.5-33l6-2c-2.678-3.077-3.58-4.832-4.5-8l-6 2.5 4.5 7.5z" fill="#98C3E8"/><rect opacity=".8" x="108" width="266.284" height="189.301" rx="5" fill="url(#paint0_linear_438_4)"/><path d="M108 5a5 5 0 015-5h71.983v189.301H113a5 5 0 01-5-5V5z" fill="#fff"/><circle cx="120" cy="12" r="4" fill="#FA9595"/><circle cx="133" cy="12" r="4" fill="#FDF397"/><circle cx="145" cy="12" r="4" fill="#C1FEBB"/><path opacity=".4" fill-rule="evenodd" clip-rule="evenodd" d="M117 106h58v7h-58v-7zm0 14h58v7h-58v-7zm39 16h-39v7h39v-7z" fill="#5A98D0"/><path opacity=".1" fill-rule="evenodd" clip-rule="evenodd" d="M294 25h58v7h-58v-7zm0 14h58v7h-58v-7zm39 16h-39v7h39v-7z" fill="#000"/><g filter="url(#filter0_d_438_4)"><rect x="100" y="26" width="81" height="50" rx="5" fill="#56CCF2"/></g><path d="M124.344 48.136c-.656-.896-1.584-1.344-2.8-1.344-1.104 0-2.032.4-2.816 1.216-.784.816-1.168 1.808-1.168 2.992 0 1.168.384 2.176 1.168 2.992.784.816 1.712 1.216 2.816 1.216 1.216 0 2.144-.448 2.8-1.36V55h1.728v-8h-1.728v1.136zm-4.336 4.704c-.48-.496-.72-1.104-.72-1.84s.24-1.344.72-1.824c.48-.496 1.088-.736 1.808-.736s1.328.24 1.808.736c.48.48.72 1.088.72 1.824s-.24 1.344-.72 1.84c-.48.48-1.088.72-1.808.72s-1.328-.24-1.808-.72zm13.07-9.248c-2.368-.144-3.616 1.056-3.616 3.248V47h-1.216v1.664h1.216V55h1.728v-6.336h1.888V47h-1.888v-.16c0-1.168.624-1.696 1.888-1.584v-1.664zM136.617 47h-1.728v8h1.728v-4.032c0-.816.24-1.408.736-1.76.496-.368 1.072-.528 1.728-.48v-1.872c-1.2 0-2.032.496-2.464 1.488V47zm6.173-1.52c.448-.448.448-1.12.016-1.552a1.083 1.083 0 00-1.568 0c-.432.432-.432 1.104 0 1.552.448.432 1.12.432 1.552 0zm.096 9.52v-8h-1.728v8h1.728zm9.142-6.864c-.656-.896-1.584-1.344-2.8-1.344-1.104 0-2.032.4-2.816 1.216-.784.816-1.168 1.808-1.168 2.992 0 1.168.384 2.176 1.168 2.992.784.816 1.712 1.216 2.816 1.216 1.216 0 2.144-.448 2.8-1.36V55h1.728v-8h-1.728v1.136zm-4.336 4.704c-.48-.496-.72-1.104-.72-1.84s.24-1.344.72-1.824c.48-.496 1.088-.736 1.808-.736s1.328.24 1.808.736c.48.48.72 1.088.72 1.824s-.24 1.344-.72 1.84c-.48.48-1.088.72-1.808.72s-1.328-.24-1.808-.72zm13.087-6.048c-1.136 0-1.952.416-2.48 1.232V47h-1.728v8h1.728v-4.288c0-1.552.816-2.304 2.032-2.304 1.104 0 1.792.656 1.792 1.856V55h1.728v-4.912c0-2.048-1.232-3.296-3.072-3.296z" fill="#fff"/><rect x="202" y="18" width="79" height="77" rx="5" fill="#EB5757"/><g clip-path="url(#clip0_438_4)"><path d="M233 43v28l22-14-22-14z" fill="#fff"/></g><g filter="url(#filter1_d_438_4)"><rect x="202" y="108" width="154" height="63" rx="5" fill="#6FCF97"/></g><path d="M215.5 153c9.5-6.5 13.5-15 31.5-15s19.58 10 30.5 10c13 0 25.5-19.5 39.5-19.5s17.5 10 25 10.5" stroke="#000" stroke-opacity=".1" stroke-width="2" stroke-linecap="round" stroke-linejoin="round"/><path d="M215 153.5c9.5-6.5 12-25.5 30-25.5s22.08 16.5 33 16.5c13 0 24.5-27 38.5-27s18.5 21 26 21.5" stroke="#fff" stroke-width="2" stroke-linecap="round" stroke-linejoin="round"/><defs><filter id="filter0_d_438_4" x="95" y="21" width="101" height="70" filterUnits="userSpaceOnUse" color-interpolation-filters="sRGB"><feFlood flood-opacity="0" result="BackgroundImageFix"/><feColorMatrix in="SourceAlpha" values="0 0 0 0 0 0 0 0 0 0 0 0 0 0 0 0 0 0 127 0" result="hardAlpha"/><feOffset dx="5" dy="5"/><feGaussianBlur stdDeviation="5"/><feColorMatrix values="0 0 0 0 0.0627451 0 0 0 0 0.439216 0 0 0 0 0.694118 0 0 0 0.2 0"/><feBlend in2="BackgroundImageFix" result="effect1_dropShadow_438_4"/><feBlend in="SourceGraphic" in2="effect1_dropShadow_438_4" result="shape"/></filter><filter id="filter1_d_438_4" x="192" y="102" width="174" height="83" filterUnits="userSpaceOnUse" color-interpolation-filters="sRGB"><feFlood flood-opacity="0" result="BackgroundImageFix"/><feColorMatrix in="SourceAlpha" values="0 0 0 0 0 0 0 0 0 0 0 0 0 0 0 0 0 0 127 0" result="hardAlpha"/><feOffset dy="4"/><feGaussianBlur stdDeviation="5"/><feColorMatrix values="0 0 0 0 0.435294 0 0 0 0 0.811765 0 0 0 0 0.592157 0 0 0 0.2 0"/><feBlend in2="BackgroundImageFix" result="effect1_dropShadow_438_4"/><feBlend in="SourceGraphic" in2="effect1_dropShadow_438_4" result="shape"/></filter><linearGradient id="paint0_linear_438_4" x1="114.393" y1="69.155" x2="419.893" y2="102.655" gradientUnits="userSpaceOnUse"><stop offset=".127" stop-color="#fff"/><stop offset=".972" stop-color="#fff" stop-opacity=".8"/></linearGradient><clipPath id="clip0_438_4"><path fill="#fff" transform="translate(217 33)" d="M0 0h48v48H0z"/></clipPath></defs></svg>