<svg width="648" height="490" viewBox="0 0 648 490" fill="none" xmlns="http://www.w3.org/2000/svg">
<path d="M-3.49124 136.467C70.3363 173.697 152.998 277.904 152.998 327.662C152.998 388.869 23.2213 482.678 -36.3035 535.893L471.655 568.705C453.566 487.726 407.894 307.7 435.688 267.716C471.655 215.974 617.207 228.594 698.817 238.059L720.902 7.74238C681.149 24.3588 592.177 72.1048 543.59 59.4847C498.615 47.8031 412.341 -2.56402 375.742 -34.5349" stroke="white" stroke-opacity="0.2" stroke-width="15"/>
<path d="M186.441 79.6769C206.633 184.844 261.531 377.637 319.583 307.469C392.148 219.76 449.57 106.179 503.836 181.269C547.249 241.34 611.107 359.843 637.609 411.585" stroke="white" stroke-opacity="0.2" stroke-width="15"/>
</svg>
