<svg width="41" height="31" viewBox="0 0 41 31" fill="none" xmlns="http://www.w3.org/2000/svg">
<mask id="mask0_450_407" style="mask-type:alpha" maskUnits="userSpaceOnUse" x="0" y="0" width="41" height="31">
<rect width="41" height="31" fill="#D9D9D9"/>
</mask>
<g mask="url(#mask0_450_407)">
<g filter="url(#filter0_d_450_407)">
<path d="M34.2844 0H6.8538C3.06855 0 0 2.28578 0 5.10543V25.5386C0 28.3583 3.06855 30.6441 6.8538 30.6441H34.2844C38.0696 30.6441 41.1382 28.3583 41.1382 25.5386V5.10543C41.1382 2.28578 38.0696 0 34.2844 0Z" fill="#56CCF2"/>
</g>
<path d="M30.8618 14.2509H26.6918L29.9318 11.8208L28.5218 10.7557L23.8618 14.2509H21.8618V12.7508L26.5218 9.2556L25.1018 8.19803L21.8618 10.6282V7.50049H19.8618V10.6282L16.6218 8.19803L15.2018 9.2556L19.8618 12.7508V14.2509H17.8618L13.2018 10.7557L11.7918 11.8208L15.0318 14.2509H10.8618V15.751H15.0318L11.7918 18.1812L13.2018 19.2462L17.8618 15.751H19.8618V17.2511L15.2018 20.7463L16.6218 21.8039L19.8618 19.3738V22.5015H21.8618V19.3738L25.1018 21.8039L26.5218 20.7463L21.8618 17.2511V15.751H23.8618L28.5218 19.2462L29.9318 18.1812L26.6918 15.751H30.8618V14.2509Z" fill="white"/>
</g>
<defs>
<filter id="filter0_d_450_407" x="-10" y="-10" width="71.1382" height="60.644" filterUnits="userSpaceOnUse" color-interpolation-filters="sRGB">
<feFlood flood-opacity="0" result="BackgroundImageFix"/>
<feColorMatrix in="SourceAlpha" type="matrix" values="0 0 0 0 0 0 0 0 0 0 0 0 0 0 0 0 0 0 127 0" result="hardAlpha"/>
<feOffset dx="5" dy="5"/>
<feGaussianBlur stdDeviation="7.5"/>
<feColorMatrix type="matrix" values="0 0 0 0 0 0 0 0 0 0 0 0 0 0 0 0 0 0 0.15 0"/>
<feBlend mode="normal" in2="BackgroundImageFix" result="effect1_dropShadow_450_407"/>
<feBlend mode="normal" in="SourceGraphic" in2="effect1_dropShadow_450_407" result="shape"/>
</filter>
</defs>
</svg>
