<svg width="41" height="31" viewBox="0 0 41 31" fill="none" xmlns="http://www.w3.org/2000/svg">
<mask id="mask0_450_411" style="mask-type:alpha" maskUnits="userSpaceOnUse" x="0" y="0" width="41" height="31">
<rect width="41" height="31" fill="#D9D9D9"/>
</mask>
<g mask="url(#mask0_450_411)">
<g filter="url(#filter0_d_450_411)">
<path d="M34.2844 0H6.85379C3.06854 0 0 2.28578 0 5.10544V25.5386C0 28.3583 3.06854 30.6441 6.85379 30.6441H34.2844C38.0696 30.6441 41.1382 28.3583 41.1382 25.5386V5.10544C41.1382 2.28578 38.0696 0 34.2844 0Z" fill="#F2C94C"/>
</g>
<path d="M30 12.7508C30 9.00056 26 6.00037 21 6.00037C16 6.00037 12 9.00056 12 12.7508C12 15.0759 13.6 17.1761 16 18.3762V20.2513C16 21.2263 16.8 22.0514 18 22.3514V22.5014C18 23.7765 19.3 24.7516 21 24.7516C22.7 24.7516 24 23.7765 24 22.5014V22.3514C25.2 22.0514 26 21.2263 26 20.2513V18.3762C28.4 17.1761 30 15.0759 30 12.7508ZM14 12.7508C14 9.82561 17.1 7.50046 21 7.50046C24.9 7.50046 28 9.82561 28 12.7508C28 15.376 25.4 17.5511 22 17.9261V16.051L23.7 14.7759C24.1 14.4759 24.1 14.0259 23.7 13.7259C23.3 13.4258 22.7 13.4258 22.3 13.7259L21 14.7009L19.7 13.7259C19.3 13.4258 18.7 13.4258 18.3 13.7259C17.9 14.0259 17.9 14.4759 18.3 14.7759L20 16.051V17.9261C16.6 17.5511 14 15.376 14 12.7508ZM21 23.2515C20.4 23.2515 20 22.9515 20 22.5014H22C22 22.9515 21.6 23.2515 21 23.2515ZM24 20.2513C24 20.7013 23.6 21.0013 23 21.0013H19C18.4 21.0013 18 20.7013 18 20.2513V19.1262C18.9 19.3512 19.9 19.5012 21 19.5012C22.1 19.5012 23.1 19.3512 24 19.1262V20.2513Z" fill="white"/>
</g>
<defs>
<filter id="filter0_d_450_411" x="-10" y="-10" width="71.1382" height="60.644" filterUnits="userSpaceOnUse" color-interpolation-filters="sRGB">
<feFlood flood-opacity="0" result="BackgroundImageFix"/>
<feColorMatrix in="SourceAlpha" type="matrix" values="0 0 0 0 0 0 0 0 0 0 0 0 0 0 0 0 0 0 127 0" result="hardAlpha"/>
<feOffset dx="5" dy="5"/>
<feGaussianBlur stdDeviation="7.5"/>
<feColorMatrix type="matrix" values="0 0 0 0 0 0 0 0 0 0 0 0 0 0 0 0 0 0 0.15 0"/>
<feBlend mode="normal" in2="BackgroundImageFix" result="effect1_dropShadow_450_411"/>
<feBlend mode="normal" in="SourceGraphic" in2="effect1_dropShadow_450_411" result="shape"/>
</filter>
</defs>
</svg>
