<svg width="544" height="547" viewBox="0 0 544 547" fill="none" xmlns="http://www.w3.org/2000/svg">
<path opacity="0.2" d="M74.5001 73.5C79.5001 86 64.5002 105.5 43.0002 112C24.5002 117.593 6.50015 117 1.50015 104C-2.92296 92.5 11.0002 80 27.0002 73.5C43.0002 67 69.5001 61 74.5001 73.5Z" fill="#98C3E8"/>
<path opacity="0.2" d="M238 48C234.109 38.0604 247.816 14.8658 264.803 9.7985C279.419 5.43829 293.111 -4.83638 297 5.49995C300.44 14.6436 289.909 35.3246 277.26 40.415C264.612 45.5053 241.891 57.9395 238 48Z" fill="#98C3E8"/>
<path opacity="0.2" d="M226.793 540.215C222.901 530.276 234.816 514.866 251.802 509.798C266.419 505.438 280.615 505.984 284.504 516.321C287.944 525.464 276.909 535.324 264.26 540.415C251.612 545.505 230.684 550.155 226.793 540.215Z" fill="#98C3E8"/>
<path opacity="0.2" d="M402.573 489.55C394.478 470.52 420.279 428.235 455.573 418.55C485.942 410.216 534.982 427.26 543.073 447.05C550.23 464.555 503.353 461.66 477.074 471.393C450.795 481.126 410.667 508.579 402.573 489.55Z" fill="#98C3E8"/>
</svg>
