<svg width="41" height="41" fill="none" xmlns="http://www.w3.org/2000/svg"><mask id="a" style="mask-type:alpha" maskUnits="userSpaceOnUse" x="0" y="0" width="41" height="41"><path fill="#D9D9D9" d="M0 0h41v41H0z"/></mask><g mask="url(#a)"><g filter="url(#filter0_d_468_508)"><path d="M34.284 0H6.854C3.069 0 0 3.048 0 6.807v27.242c0 3.76 3.069 6.807 6.854 6.807h27.43c3.786 0 6.854-3.047 6.854-6.807V6.807C41.138 3.047 38.07 0 34.284 0z" fill="#F58A8A"/></g><g clip-path="url(#clip0_468_508)"><path d="M27 17h-1v-2c0-2.76-2.24-5-5-5s-5 2.24-5 5v2h-1c-1.1 0-2 .9-2 2v10c0 1.1.9 2 2 2h12c1.1 0 2-.9 2-2V19c0-1.1-.9-2-2-2zm-6 9c-1.1 0-2-.9-2-2s.9-2 2-2 2 .9 2 2-.9 2-2 2zm3.1-9h-6.2v-2c0-1.71 1.39-3.1 3.1-3.1 1.71 0 3.1 1.39 3.1 3.1v2z" fill="#fff"/></g></g><defs><clipPath id="clip0_468_508"><path fill="#fff" transform="translate(9 9)" d="M0 0h24v24H0z"/></clipPath><filter id="filter0_d_468_508" x="-10" y="-10" width="71.138" height="70.856" filterUnits="userSpaceOnUse" color-interpolation-filters="sRGB"><feFlood flood-opacity="0" result="BackgroundImageFix"/><feColorMatrix in="SourceAlpha" values="0 0 0 0 0 0 0 0 0 0 0 0 0 0 0 0 0 0 127 0" result="hardAlpha"/><feOffset dx="5" dy="5"/><feGaussianBlur stdDeviation="7.5"/><feColorMatrix values="0 0 0 0 0 0 0 0 0 0 0 0 0 0 0 0 0 0 0.15 0"/><feBlend in2="BackgroundImageFix" result="effect1_dropShadow_468_508"/><feBlend in="SourceGraphic" in2="effect1_dropShadow_468_508" result="shape"/></filter></defs></svg>