<svg width="41" height="41" fill="none" xmlns="http://www.w3.org/2000/svg"><mask id="a" style="mask-type:alpha" maskUnits="userSpaceOnUse" x="0" y="0" width="41" height="41"><path fill="#D9D9D9" d="M0 0h41v41H0z"/></mask><g mask="url(#a)"><g filter="url(#filter0_d_468_511)"><path d="M34.284 0H6.854C3.069 0 0 3.048 0 6.807v27.242c0 3.76 3.069 6.807 6.854 6.807h27.43c3.786 0 6.854-3.047 6.854-6.807V6.807C41.138 3.047 38.07 0 34.284 0z" fill="#56CCF2"/></g><g clip-path="url(#clip0_468_511)"><path d="M30.862 19h-4.17l3.24-3.24-1.41-1.42-4.66 4.66h-2v-2l4.66-4.66-1.42-1.41-3.24 3.24V10h-2v4.17l-3.24-3.24-1.42 1.41 4.66 4.66v2h-2l-4.66-4.66-1.41 1.42 3.24 3.24h-4.17v2h4.17l-3.24 3.24 1.41 1.42 4.66-4.66h2v2l-4.66 4.66 1.42 1.41 3.24-3.24V30h2v-4.17l3.24 3.24 1.42-1.41-4.66-4.66v-2h2l4.66 4.66 1.41-1.42-3.24-3.24h4.17v-2z" fill="#fff"/></g></g><defs><clipPath id="clip0_468_511"><path fill="#fff" transform="translate(8.862 8)" d="M0 0h24v24H0z"/></clipPath><filter id="filter0_d_468_511" x="-10" y="-10" width="71.138" height="70.856" filterUnits="userSpaceOnUse" color-interpolation-filters="sRGB"><feFlood flood-opacity="0" result="BackgroundImageFix"/><feColorMatrix in="SourceAlpha" values="0 0 0 0 0 0 0 0 0 0 0 0 0 0 0 0 0 0 127 0" result="hardAlpha"/><feOffset dx="5" dy="5"/><feGaussianBlur stdDeviation="7.5"/><feColorMatrix values="0 0 0 0 0 0 0 0 0 0 0 0 0 0 0 0 0 0 0.15 0"/><feBlend in2="BackgroundImageFix" result="effect1_dropShadow_468_511"/><feBlend in="SourceGraphic" in2="effect1_dropShadow_468_511" result="shape"/></filter></defs></svg>